<?xml version="1.0" encoding="utf-8"?>
<!-- Generator: Adobe Illustrator 25.2.0, SVG Export Plug-In . SVG Version: 6.00 Build 0)  -->
<svg version="1.1" baseProfile="tiny" id="Layer_1" xmlns="http://www.w3.org/2000/svg" xmlns:xlink="http://www.w3.org/1999/xlink"
	 x="0px" y="0px" width="612px" height="612px" viewBox="0 0 612 612" overflow="visible" xml:space="preserve">
<g>
	<g>
		<rect fill="#DDDDDD" width="611.5" height="612"/>
	</g>
	<g>
		<path fill="#999999" d="M407.8,464.7c1.1,0,2,0.3,2.6,0.8s1,1.4,1.1,2.5h-7.6C404.2,465.9,405.5,464.7,407.8,464.7z M401.3,476.5
			c1.6,1.5,3.7,2.2,6.4,2.2c1.5,0,2.9-0.2,4.1-0.6s2.5-1.1,3.7-2.1l-1.5-2.8c-1.1,0.6-2.1,1.1-3,1.3s-2,0.4-3.1,0.4
			c-2.3,0-3.7-1.2-4-3.7h11.5c0.1-0.8,0.2-1.5,0.2-2c0-2.7-0.8-4.7-2.2-6.2s-3.3-2.1-5.8-2.1c-2.7,0-4.8,0.8-6.3,2.3
			s-2.3,3.8-2.3,6.8C399,472.9,399.7,475,401.3,476.5z M384.8,466c0.6-0.7,1.5-1,2.6-1c0.8,0,1.5,0.2,2.1,0.6
			c0.6,0.4,1.3,0.9,1.9,1.7v4.4c-0.6,0.7-1.2,1.3-1.7,1.7c-0.6,0.4-1.3,0.6-2.1,0.6c-2.5,0-3.7-1.5-3.7-4.4
			C383.9,467.8,384.2,466.7,384.8,466z M380.8,475.6c1.2,1.4,2.9,2.1,5,2.1c1.3,0,2.4-0.2,3.2-0.6s1.6-1,2.4-1.9v0.3
			c0,1.9-0.3,3.2-1,4s-1.7,1.2-3.2,1.2c-1.6,0-3.7-0.4-6.2-1.2l-0.8,3.4c1,0.5,2.2,0.9,3.6,1.2c1.4,0.3,2.7,0.4,4.1,0.4
			c2.8,0,4.9-0.7,6.3-2.2s2.1-3.7,2.1-6.8v-14.4h-4.9v2c-1.8-1.6-3.8-2.3-5.8-2.3c-2.2,0-3.9,0.7-5,2.1c-1.1,1.4-1.7,3.6-1.7,6.5
			C379,472.2,379.6,474.2,380.8,475.6z M366,471.2c0.5-0.3,1.4-0.4,2.6-0.4h3.2v2.4c-1.1,1.1-2.4,1.7-3.8,1.7c-0.9,0-1.6-0.2-2-0.6
			c-0.5-0.4-0.7-0.9-0.7-1.6C365.2,472,365.5,471.5,366,471.2z M361.8,477.5c1,0.8,2.6,1.2,4.6,1.2c1.1,0,2-0.2,2.8-0.6
			c0.8-0.4,1.7-1,2.5-1.7v2.1h4.9V468c0-2.5-0.5-4.4-1.6-5.5s-2.8-1.7-5.3-1.7c-1.7,0-4.2,0.4-7.6,1.3l0.8,3.5
			c2.4-0.5,4.4-0.8,5.9-0.8c1.1,0,1.9,0.2,2.3,0.7c0.4,0.5,0.6,1.3,0.6,2.5h-3.9c-2.5,0-4.4,0.4-5.6,1.3c-1.2,0.9-1.9,2.2-1.9,4.1
			C360.3,475.3,360.8,476.7,361.8,477.5z M336.2,478.4v-10.7c1.2-1.5,2.5-2.3,3.7-2.3c0.8,0,1.4,0.3,1.7,0.8s0.5,1.4,0.5,2.6v9.5
			h4.9v-10.8c1.3-1.5,2.6-2.2,3.7-2.2c0.8,0,1.3,0.3,1.6,0.8c0.3,0.5,0.5,1.4,0.5,2.6v9.6h4.9v-10.9c0-2.3-0.4-4-1.3-5
			c-0.9-1.1-2.2-1.6-4.1-1.6c-1,0-2,0.2-2.9,0.7c-0.9,0.5-1.9,1.2-3,2.3c-0.7-2-2.4-3-5-3.1c-1,0-1.9,0.2-2.8,0.7
			c-0.9,0.5-1.7,1.1-2.6,2l0-2.4h-4.9v17.2H336.2z M326.9,478.4v-22h-5v22H326.9z M303,464.7c1.1,0,2,0.3,2.6,0.8s1,1.4,1.1,2.5
			h-7.6C299.5,465.9,300.8,464.7,303,464.7z M296.6,476.5c1.6,1.5,3.7,2.2,6.4,2.2c1.5,0,2.9-0.2,4.1-0.6s2.5-1.1,3.7-2.1l-1.5-2.8
			c-1.1,0.6-2.1,1.1-3,1.3s-2,0.4-3.1,0.4c-2.3,0-3.7-1.2-4-3.7h11.5c0.1-0.8,0.2-1.5,0.2-2c0-2.7-0.8-4.7-2.2-6.2s-3.3-2.1-5.8-2.1
			c-2.7,0-4.8,0.8-6.3,2.3s-2.3,3.8-2.3,6.8C294.2,472.9,295,475,296.6,476.5z M285.7,478.8c2.2,0,3.9-0.5,5.1-1.4
			c1.2-1,1.8-2.3,1.8-4.1c0-1.5-0.4-2.6-1.2-3.3c-0.8-0.7-2.2-1.3-4.3-1.9c-0.3-0.1-0.6-0.2-1-0.3c-0.4-0.1-0.7-0.2-0.9-0.3
			s-0.5-0.1-0.7-0.2c-0.3-0.1-0.5-0.2-0.6-0.2c-0.1-0.1-0.2-0.2-0.3-0.3c-0.1-0.1-0.2-0.2-0.2-0.3s-0.1-0.3-0.1-0.4
			c0-0.4,0.2-0.7,0.5-1c0.3-0.2,0.7-0.3,1.3-0.3c1.4,0,3.3,0.4,5.9,1.1l1.2-3.5c-2.6-1-5.1-1.4-7.4-1.4c-2,0-3.6,0.5-4.7,1.5
			s-1.7,2.4-1.7,4.2c0,1.2,0.4,2.2,1.2,3s2,1.4,3.7,1.9c0.3,0.1,0.7,0.2,1.1,0.3c0.4,0.1,0.7,0.2,1,0.3c0.2,0.1,0.5,0.1,0.7,0.2
			c0.3,0.1,0.5,0.2,0.7,0.3s0.3,0.2,0.5,0.3c0.2,0.1,0.3,0.2,0.4,0.4s0.1,0.3,0.1,0.5c0,0.8-0.7,1.2-2,1.2c-1.8,0-4-0.6-6.6-1.7
			l-1.4,3.3C280.3,478,283,478.8,285.7,478.8z M264.2,466.1c0.7-0.8,1.7-1.3,3-1.3c1.3,0,2.3,0.4,3,1.3c0.7,0.8,1.1,2.1,1.1,3.8
			c0,1.6-0.4,2.8-1.1,3.7c-0.7,0.8-1.7,1.2-3,1.2c-1.3,0-2.3-0.4-3-1.2s-1.1-2-1.1-3.7C263.2,468.2,263.5,467,264.2,466.1z
			 M260.6,476.4c1.6,1.6,3.8,2.3,6.5,2.3c2.8,0,5-0.8,6.6-2.3s2.4-3.7,2.4-6.5c0-2.8-0.8-5.1-2.4-6.6s-3.8-2.4-6.6-2.4
			c-2.8,0-4.9,0.8-6.6,2.4c-1.6,1.6-2.4,3.8-2.4,6.6C258.2,472.7,259,474.8,260.6,476.4z M244.3,466.1c0.7-0.8,1.7-1.3,3-1.3
			c1.3,0,2.3,0.4,3,1.3c0.7,0.8,1.1,2.1,1.1,3.8c0,1.6-0.4,2.8-1.1,3.7c-0.7,0.8-1.7,1.2-3,1.2c-1.3,0-2.3-0.4-3-1.2s-1.1-2-1.1-3.7
			C243.2,468.2,243.6,467,244.3,466.1z M240.7,476.4c1.6,1.6,3.8,2.3,6.5,2.3c2.8,0,5-0.8,6.6-2.3s2.4-3.7,2.4-6.5
			c0-2.8-0.8-5.1-2.4-6.6s-3.8-2.4-6.6-2.4c-2.8,0-4.9,0.8-6.6,2.4c-1.6,1.6-2.4,3.8-2.4,6.6C238.3,472.7,239.1,474.8,240.7,476.4z
			 M224.1,478.4v-10.5c1.3-1.6,2.7-2.5,4.1-2.5c0.9,0,1.6,0.3,1.9,0.8c0.3,0.5,0.5,1.4,0.5,2.8v9.5h4.9v-10.9c0-2.3-0.4-4-1.3-5.1
			s-2.2-1.6-4.1-1.6c-2.2,0-4.2,0.9-6,2.8v-8.9h-4.9v23.6H224.1z M199.5,475.8c1.9,2,4.5,2.9,7.9,2.9c1.7,0,3.3-0.2,4.8-0.6
			s2.9-1.1,4.4-1.9l-1.7-3.8c-1.4,0.7-2.6,1.1-3.7,1.4c-1.1,0.3-2.3,0.4-3.6,0.4c-1.8,0-3.2-0.6-4.2-1.8c-1-1.2-1.6-2.8-1.6-4.9
			c0-2.2,0.5-3.9,1.6-5.1s2.6-1.7,4.6-1.7c1.7,0,3.8,0.4,6.3,1.2l1.5-3.8c-2.5-1.3-5.2-2-8.1-2c-3.5,0-6.2,1-8.2,3s-2.9,4.8-2.9,8.4
			C196.6,471.1,197.6,473.8,199.5,475.8z"/>
	</g>
</g>
<g>
	<path fill="#B5B5B5" d="M305.8,414.2c-59.2,0.4-108.2-48.7-108.1-108.4c0.1-59.5,49.1-108.2,108.5-108.1
		c59.6,0.1,108.2,49.1,108.1,108.5C414.2,365.5,365.5,414.7,305.8,414.2z M367.8,310.7c0-1.8,0-3.1,0-4.4c0-15.9,0-31.8,0-47.6
		c0-0.9,0-1.8,0-2.6c-0.3-3.3-1.3-4.4-4.6-4.7c-1.3-0.1-2.6-0.1-3.9-0.1c-21.4,0-42.8,0-64.3,0c-14.7,0-29.4,0-44.1,0
		c-5.7,0-6.5,1-6.6,6.7c0,0.4,0,0.9,0,1.3c0,31.2,0,62.3,0,93.5c0,6.6,0.6,8,8,8c31.9-0.1,63.8,0,95.7,0c1.4,0,2.8,0,4.4,0
		c0.1-1.1,0.3-1.8,0.3-2.5c0-0.8-0.2-1.7-0.3-2.6c-5.5-0.7-10.9,0.3-16.5-0.7c0-8.4,0-16.5,0-24.7c-2.7-0.2-5-0.3-7.2-0.4
		c-6-9.3-11.9-18.4-18-27.8c-2.5,3.8-4.6,7.1-6.8,10.5c3.7,5.7,7.4,11.3,11.2,17.3c-2.7,0-5,0-7.3,0c-8-11.4-14.9-23.5-23.2-35.4
		c-1.3,1.9-2.2,3.1-3,4.5c-5.9,9.2-11.7,18.4-17.6,27.6c-2.6,4-2.6,4-7.8,3c-0.8-3.5-0.8-62.6,0-66.7c33.2,0,66.5,0,100.3,0
		c0,16.1,0,31.9,0,47.9C360.3,310.7,363.7,310.7,367.8,310.7z M371.8,347.3c6,0,11.3,0,16.8,0c0.1-3.9,0.6-7.3-0.3-10.9
		c-5.5-0.5-10.8,0.2-16.5-0.5c0-5.6,0-10.8,0-16.1c-3.8,0-7.2,0-10.8,0c-0.7,5.5,0.3,10.9-0.7,16.6c-5.4,0-10.6,0-16,0
		c0,3.8,0,7.2,0,10.8c5.5,0.6,10.9-0.3,16.5,0.6c0,5.5,0,10.7,0,16.1c3.8,0,7.2,0,11,0C371.8,358.5,371.8,353.3,371.8,347.3z
		 M336.6,274.9c-5.4,0-10.5,4.7-10.6,10c-0.2,5.3,5,10.7,10.5,10.8c5.3,0.1,10.4-5.1,10.4-10.7C346.7,279.2,342.4,274.9,336.6,274.9
		z"/>
</g>
<line fill="none" stroke="#B5B5B5" stroke-width="3" stroke-miterlimit="10" x1="88.7" y1="88.6" x2="156" y2="155.9"/>
<line fill="none" stroke="#B5B5B5" stroke-width="3" stroke-miterlimit="10" x1="455.8" y1="154.5" x2="522.1" y2="89.5"/>
<line fill="none" stroke="#B5B5B5" stroke-width="3" stroke-miterlimit="10" x1="456.2" y1="454.9" x2="521.6" y2="522"/>
<line fill="none" stroke="#B5B5B5" stroke-width="3" stroke-miterlimit="10" x1="155.1" y1="454.9" x2="88.2" y2="522.9"/>
</svg>
